ffmpeg started on 2026-01-16 at 15:53:13
Report written to "D:\Convert\FFMetrics\reports\ssim_report-6.txt"
Log level: 32
Command line:
ffmpeg -hide_banner -nostdin -r 24000/1001 -i "F:\\Convert\\files\\[DC] Make Heroine ga Oosugiru - 07_Telegram_HEVC(142).mkv" -r 24000/1001 -i "F:\\Convert\\files\\[DC] Make Heroine ga Oosugiru - 07_Telegram.mp4" -lavfi "[0:v]settb=AVTB,setpts=PTS-STARTPTS,format=pix_fmts=yuv420p10le,fps=24000/1001,scale=1920:1080:flags=lanczos:param0=3:out_range=limited:out_color_matrix=bt709:out_chroma_loc=left,setsar=1/1,setdar=(1920/1080)*(1/1),colorspace=format=yuv420p10:range=tv:primaries=bt709:trc=bt709:space=bt709:fast=0[main];[1:v]settb=AVTB,setpts=PTS-STARTPTS,format=pix_fmts=yuv420p,fps=24000/1001,scale=1920:1080:flags=lanczos:param0=3:out_range=limited:out_color_matrix=bt709:out_chroma_loc=left,setsar=1.000,setdar=1.778,colorspace=format=yuv420p:range=tv:primaries=bt709:trc=bt709:space=bt709:fast=0[ref];[main][ref]ssim=eof_action=endall:stats_file='D\\:/Convert/FFMetrics/logs/ssim_logfile-6.txt'" -f null -
Input #0, matroska,webm, from 'F:\Convert\files\[DC] Make Heroine ga Oosugiru - 07_Telegram_HEVC(142).mkv':
  Metadata:
    COMPATIBLE_BRANDS: isomiso2avc1mp41
    MAJOR_BRAND     : isom
    MINOR_VERSION   : 512
    ENCODER         : Lavf61.7.100
  Duration: 00:24:06.79, start: -0.021000, bitrate: 969 kb/s
  Stream #0:0: Video: hevc (Main 10), yuv420p10le(tv, bt709, progressive), 1920x1080 [SAR 1:1 DAR 16:9], 23.98 fps, 23.98 tbr, 1k tbn (default)
      Metadata:
        HANDLER_NAME    : VideoHandler
        VENDOR_ID       : [0][0][0][0]
        ENCODER         : Lavc61.19.100 libx265
        BPS             : 772544
        DURATION        : 00:24:06.569708333
        NUMBER_OF_FRAMES: 34683
        NUMBER_OF_BYTES : 139692336
        _STATISTICS_WRITING_APP: mkvpropedit v94.0 ('Initiate') 64-bit
        _STATISTICS_WRITING_DATE_UTC: 2026-01-16 11:58:09
        _STATISTICS_TAGS: BPS DURATION NUMBER_OF_FRAMES NUMBER_OF_BYTES
  Stream #0:1: Audio: aac (LC), 48000 Hz, stereo, fltp (default)
      Metadata:
        HANDLER_NAME    : SoundHandler
        VENDOR_ID       : [0][0][0][0]
        ENCODER         : Lavc61.19.100 aac
        BPS             : 193194
        DURATION        : 00:24:06.784000000
        NUMBER_OF_FRAMES: 67819
        NUMBER_OF_BYTES : 34938755
        _STATISTICS_WRITING_APP: mkvpropedit v94.0 ('Initiate') 64-bit
        _STATISTICS_WRITING_DATE_UTC: 2026-01-16 11:58:09
        _STATISTICS_TAGS: BPS DURATION NUMBER_OF_FRAMES NUMBER_OF_BYTES
Input #1, mov,mp4,m4a,3gp,3g2,mj2, from 'F:\Convert\files\[DC] Make Heroine ga Oosugiru - 07_Telegram.mp4':
  Metadata:
    major_brand     : isom
    minor_version   : 512
    compatible_brands: isomiso2avc1mp41
    encoder         : Lavf60.16.100
  Duration: 00:24:06.74, start: 0.000000, bitrate: 3764 kb/s
  Stream #1:0[0x1](und): Video: h264 (High) (avc1 / 0x31637661), yuv420p(tv, bt709, progressive), 1920x1080 [SAR 1:1 DAR 16:9], 3616 kb/s, 23.98 fps, 23.98 tbr, 24k tbn (default)
      Metadata:
        handler_name    : VideoHandler
        vendor_id       : [0][0][0][0]
        encoder         : Lavc60.31.102 h264_qsv
  Stream #1:1[0x2](und): Audio: aac (HE-AACv2) (mp4a / 0x6134706D), 48000 Hz, stereo, fltp, 144 kb/s (default)
      Metadata:
        handler_name    : SoundHandler
        vendor_id       : [0][0][0][0]
Stream mapping:
  Stream #0:0 (hevc) -> settb:default
  Stream #1:0 (h264) -> settb:default
  ssim:default -> Stream #0:0 (wrapped_avframe)
  Stream #0:1 -> #0:1 (aac (native) -> pcm_s16le (native))
Output #0, null, to 'pipe:':
  Metadata:
    COMPATIBLE_BRANDS: isomiso2avc1mp41
    MAJOR_BRAND     : isom
    MINOR_VERSION   : 512
    encoder         : Lavf61.7.100
  Stream #0:0: Video: wrapped_avframe, yuv420p10le(tv, bt709, progressive), 1920x1080 [SAR 1:1 DAR 16:9], q=2-31, 200 kb/s, 23.98 fps, 23.98 tbn
      Metadata:
        encoder         : Lavc61.19.100 wrapped_avframe
  Stream #0:1: Audio: pcm_s16le, 48000 Hz, stereo, s16, 1536 kb/s (default)
      Metadata:
        HANDLER_NAME    : SoundHandler
        VENDOR_ID       : [0][0][0][0]
        _STATISTICS_TAGS: BPS DURATION NUMBER_OF_FRAMES NUMBER_OF_BYTES
        BPS             : 193194
        DURATION        : 00:24:06.784000000
        NUMBER_OF_FRAMES: 67819
        NUMBER_OF_BYTES : 34938755
        _STATISTICS_WRITING_APP: mkvpropedit v94.0 ('Initiate') 64-bit
        _STATISTICS_WRITING_DATE_UTC: 2026-01-16 11:58:09
        encoder         : Lavc61.19.100 pcm_s16le
frame=  110 fps=0.0 q=-0.0 size=N/A time=00:00:04.58 bitrate=N/A speed=8.93x    frame=  294 fps=287 q=-0.0 size=N/A time=00:00:12.26 bitrate=N/A speed=  12x    frame=  480 fps=312 q=-0.0 size=N/A time=00:00:20.02 bitrate=N/A speed=  13x    frame=  667 fps=324 q=-0.0 size=N/A time=00:00:27.81 bitrate=N/A speed=13.5x    frame=  853 fps=332 q=-0.0 size=N/A time=00:00:35.57 bitrate=N/A speed=13.8x    frame=  991 fps=321 q=-0.0 size=N/A time=00:00:41.33 bitrate=N/A speed=13.4x    frame= 1149 fps=318 q=-0.0 size=N/A time=00:00:47.92 bitrate=N/A speed=13.3x    frame= 1310 fps=317 q=-0.0 size=N/A time=00:00:54.63 bitrate=N/A speed=13.2x    frame= 1461 fps=315 q=-0.0 size=N/A time=00:01:00.93 bitrate=N/A speed=13.1x    frame= 1603 fps=311 q=-0.0 size=N/A time=00:01:06.85 bitrate=N/A speed=  13x    frame= 1760 fps=310 q=-0.0 size=N/A time=00:01:13.40 bitrate=N/A speed=12.9x    frame= 1920 fps=310 q=-0.0 size=N/A time=00:01:20.08 bitrate=N/A speed=12.9x    frame= 2062 fps=307 q=-0.0 size=N/A time=00:01:26.00 bitrate=N/A speed=12.8x    frame= 2183 fps=302 q=-0.0 size=N/A time=00:01:31.04 bitrate=N/A speed=12.6x    frame= 2349 fps=303 q=-0.0 size=N/A time=00:01:37.97 bitrate=N/A speed=12.6x    frame= 2477 fps=300 q=-0.0 size=N/A time=00:01:43.31 bitrate=N/A speed=12.5x    frame= 2617 fps=298 q=-0.0 size=N/A time=00:01:49.15 bitrate=N/A speed=12.4x    frame= 2793 fps=301 q=-0.0 size=N/A time=00:01:56.49 bitrate=N/A speed=12.5x    frame= 2968 fps=302 q=-0.0 size=N/A time=00:02:03.79 bitrate=N/A speed=12.6x    frame= 3148 fps=305 q=-0.0 size=N/A time=00:02:11.29 bitrate=N/A speed=12.7x    frame= 3331 fps=307 q=-0.0 size=N/A time=00:02:18.93 bitrate=N/A speed=12.8x    frame= 3513 fps=310 q=-0.0 size=N/A time=00:02:26.52 bitrate=N/A speed=12.9x    frame= 3705 fps=312 q=-0.0 size=N/A time=00:02:34.52 bitrate=N/A speed=  13x    frame= 3889 fps=314 q=-0.0 size=N/A time=00:02:42.20 bitrate=N/A speed=13.1x    frame= 4069 fps=315 q=-0.0 size=N/A time=00:02:49.71 bitrate=N/A speed=13.2x    frame= 4258 fps=317 q=-0.0 size=N/A time=00:02:57.59 bitrate=N/A speed=13.2x    frame= 4437 fps=319 q=-0.0 size=N/A time=00:03:05.05 bitrate=N/A speed=13.3x    frame= 4621 fps=320 q=-0.0 size=N/A time=00:03:12.73 bitrate=N/A speed=13.3x    frame= 4806 fps=321 q=-0.0 size=N/A time=00:03:20.45 bitrate=N/A speed=13.4x    frame= 4989 fps=322 q=-0.0 size=N/A time=00:03:28.08 bitrate=N/A speed=13.4x    frame= 5174 fps=323 q=-0.0 size=N/A time=00:03:35.79 bitrate=N/A speed=13.5x    frame= 5351 fps=324 q=-0.0 size=N/A time=00:03:43.18 bitrate=N/A speed=13.5x    frame= 5533 fps=325 q=-0.0 size=N/A time=00:03:50.77 bitrate=N/A speed=13.6x    frame= 5718 fps=326 q=-0.0 size=N/A time=00:03:58.48 bitrate=N/A speed=13.6x    frame= 5903 fps=327 q=-0.0 size=N/A time=00:04:06.20 bitrate=N/A speed=13.6x    frame= 6090 fps=328 q=-0.0 size=N/A time=00:04:14.00 bitrate=N/A speed=13.7x    frame= 6273 fps=329 q=-0.0 size=N/A time=00:04:21.63 bitrate=N/A speed=13.7x    frame= 6452 fps=329 q=-0.0 size=N/A time=00:04:29.10 bitrate=N/A speed=13.7x    frame= 6640 fps=330 q=-0.0 size=N/A time=00:04:36.94 bitrate=N/A speed=13.8x    frame= 6825 fps=331 q=-0.0 size=N/A time=00:04:44.65 bitrate=N/A speed=13.8x    frame= 7006 fps=331 q=-0.0 size=N/A time=00:04:52.20 bitrate=N/A speed=13.8x    frame= 7183 fps=332 q=-0.0 size=N/A time=00:04:59.59 bitrate=N/A speed=13.8x    frame= 7372 fps=332 q=-0.0 size=N/A time=00:05:07.47 bitrate=N/A speed=13.9x    frame= 7547 fps=332 q=-0.0 size=N/A time=00:05:14.77 bitrate=N/A speed=13.9x    frame= 7728 fps=333 q=-0.0 size=N/A time=00:05:22.32 bitrate=N/A speed=13.9x    frame= 7908 fps=333 q=-0.0 size=N/A time=00:05:29.82 bitrate=N/A speed=13.9x    frame= 8090 fps=334 q=-0.0 size=N/A time=00:05:37.42 bitrate=N/A speed=13.9x    frame= 8255 fps=333 q=-0.0 size=N/A time=00:05:44.30 bitrate=N/A speed=13.9x    frame= 8431 fps=334 q=-0.0 size=N/A time=00:05:51.64 bitrate=N/A speed=13.9x    frame= 8619 fps=334 q=-0.0 size=N/A time=00:05:59.48 bitrate=N/A speed=13.9x    frame= 8796 fps=334 q=-0.0 size=N/A time=00:06:06.86 bitrate=N/A speed=13.9x    frame= 8981 fps=335 q=-0.0 size=N/A time=00:06:14.58 bitrate=N/A speed=  14x    frame= 9162 fps=335 q=-0.0 size=N/A time=00:06:22.13 bitrate=N/A speed=  14x    frame= 9349 fps=336 q=-0.0 size=N/A time=00:06:29.93 bitrate=N/A speed=  14x    frame= 9525 fps=336 q=-0.0 size=N/A time=00:06:37.27 bitrate=N/A speed=  14x    frame= 9699 fps=336 q=-0.0 size=N/A time=00:06:44.52 bitrate=N/A speed=  14x    frame= 9891 fps=336 q=-0.0 size=N/A time=00:06:52.53 bitrate=N/A speed=  14x    frame=10067 fps=337 q=-0.0 size=N/A time=00:06:59.87 bitrate=N/A speed=  14x    frame=10248 fps=337 q=-0.0 size=N/A time=00:07:07.42 bitrate=N/A speed=  14x    frame=10427 fps=337 q=-0.0 size=N/A time=00:07:14.89 bitrate=N/A speed=14.1x    frame=10614 fps=337 q=-0.0 size=N/A time=00:07:22.69 bitrate=N/A speed=14.1x    frame=10793 fps=337 q=-0.0 size=N/A time=00:07:30.15 bitrate=N/A speed=14.1x    frame=10967 fps=338 q=-0.0 size=N/A time=00:07:37.41 bitrate=N/A speed=14.1x    frame=11141 fps=338 q=-0.0 size=N/A time=00:07:44.67 bitrate=N/A speed=14.1x    frame=11331 fps=338 q=-0.0 size=N/A time=00:07:52.59 bitrate=N/A speed=14.1x    frame=11506 fps=338 q=-0.0 size=N/A time=00:07:59.89 bitrate=N/A speed=14.1x    frame=11693 fps=338 q=-0.0 size=N/A time=00:08:07.69 bitrate=N/A speed=14.1x    frame=11873 fps=338 q=-0.0 size=N/A time=00:08:15.20 bitrate=N/A speed=14.1x    frame=12054 fps=339 q=-0.0 size=N/A time=00:08:22.75 bitrate=N/A speed=14.1x    frame=12231 fps=339 q=-0.0 size=N/A time=00:08:30.13 bitrate=N/A speed=14.1x    frame=12412 fps=339 q=-0.0 size=N/A time=00:08:37.68 bitrate=N/A speed=14.1x    frame=12593 fps=339 q=-0.0 size=N/A time=00:08:45.23 bitrate=N/A speed=14.1x    frame=12774 fps=339 q=-0.0 size=N/A time=00:08:52.78 bitrate=N/A speed=14.2x    frame=12963 fps=340 q=-0.0 size=N/A time=00:09:00.66 bitrate=N/A speed=14.2x    frame=13148 fps=340 q=-0.0 size=N/A time=00:09:08.38 bitrate=N/A speed=14.2x    frame=13321 fps=340 q=-0.0 size=N/A time=00:09:15.59 bitrate=N/A speed=14.2x    frame=13499 fps=340 q=-0.0 size=N/A time=00:09:23.02 bitrate=N/A speed=14.2x    frame=13680 fps=340 q=-0.0 size=N/A time=00:09:30.57 bitrate=N/A speed=14.2x    frame=13864 fps=340 q=-0.0 size=N/A time=00:09:38.24 bitrate=N/A speed=14.2x    frame=14042 fps=340 q=-0.0 size=N/A time=00:09:45.66 bitrate=N/A speed=14.2x    frame=14213 fps=340 q=-0.0 size=N/A time=00:09:52.80 bitrate=N/A speed=14.2x    frame=14396 fps=340 q=-0.0 size=N/A time=00:10:00.43 bitrate=N/A speed=14.2x    frame=14576 fps=340 q=-0.0 size=N/A time=00:10:07.94 bitrate=N/A speed=14.2x    frame=14759 fps=341 q=-0.0 size=N/A time=00:10:15.57 bitrate=N/A speed=14.2x    frame=14945 fps=341 q=-0.0 size=N/A time=00:10:23.33 bitrate=N/A speed=14.2x    frame=15116 fps=341 q=-0.0 size=N/A time=00:10:30.46 bitrate=N/A speed=14.2x    frame=15286 fps=341 q=-0.0 size=N/A time=00:10:37.55 bitrate=N/A speed=14.2x    frame=15463 fps=341 q=-0.0 size=N/A time=00:10:44.93 bitrate=N/A speed=14.2x    frame=15646 fps=341 q=-0.0 size=N/A time=00:10:52.56 bitrate=N/A speed=14.2x    frame=15829 fps=341 q=-0.0 size=N/A time=00:11:00.20 bitrate=N/A speed=14.2x    frame=16013 fps=341 q=-0.0 size=N/A time=00:11:07.87 bitrate=N/A speed=14.2x    frame=16201 fps=341 q=-0.0 size=N/A time=00:11:15.71 bitrate=N/A speed=14.2x    frame=16380 fps=341 q=-0.0 size=N/A time=00:11:23.18 bitrate=N/A speed=14.2x    frame=16555 fps=341 q=-0.0 size=N/A time=00:11:30.48 bitrate=N/A speed=14.2x    frame=16738 fps=342 q=-0.0 size=N/A time=00:11:38.11 bitrate=N/A speed=14.2x    frame=16922 fps=342 q=-0.0 size=N/A time=00:11:45.78 bitrate=N/A speed=14.3x    frame=17111 fps=342 q=-0.0 size=N/A time=00:11:53.67 bitrate=N/A speed=14.3x    frame=17294 fps=342 q=-0.0 size=N/A time=00:12:01.30 bitrate=N/A speed=14.3x    frame=17475 fps=342 q=-0.0 size=N/A time=00:12:08.85 bitrate=N/A speed=14.3x    frame=17649 fps=342 q=-0.0 size=N/A time=00:12:16.11 bitrate=N/A speed=14.3x    frame=17832 fps=342 q=-0.0 size=N/A time=00:12:23.74 bitrate=N/A speed=14.3x    frame=18009 fps=342 q=-0.0 size=N/A time=00:12:31.12 bitrate=N/A speed=14.3x    frame=18189 fps=342 q=-0.0 size=N/A time=00:12:38.63 bitrate=N/A speed=14.3x    frame=18368 fps=342 q=-0.0 size=N/A time=00:12:46.09 bitrate=N/A speed=14.3x    frame=18547 fps=342 q=-0.0 size=N/A time=00:12:53.56 bitrate=N/A speed=14.3x    frame=18732 fps=343 q=-0.0 size=N/A time=00:13:01.28 bitrate=N/A speed=14.3x    frame=18915 fps=343 q=-0.0 size=N/A time=00:13:08.91 bitrate=N/A speed=14.3x    frame=19106 fps=343 q=-0.0 size=N/A time=00:13:16.87 bitrate=N/A speed=14.3x    frame=19284 fps=343 q=-0.0 size=N/A time=00:13:24.30 bitrate=N/A speed=14.3x    frame=19464 fps=343 q=-0.0 size=N/A time=00:13:31.81 bitrate=N/A speed=14.3x    frame=19654 fps=343 q=-0.0 size=N/A time=00:13:39.73 bitrate=N/A speed=14.3x    frame=19838 fps=343 q=-0.0 size=N/A time=00:13:47.40 bitrate=N/A speed=14.3x    frame=20007 fps=343 q=-0.0 size=N/A time=00:13:54.45 bitrate=N/A speed=14.3x    frame=20182 fps=343 q=-0.0 size=N/A time=00:14:01.75 bitrate=N/A speed=14.3x    frame=20368 fps=343 q=-0.0 size=N/A time=00:14:09.51 bitrate=N/A speed=14.3x    frame=20545 fps=343 q=-0.0 size=N/A time=00:14:16.89 bitrate=N/A speed=14.3x    frame=20709 fps=343 q=-0.0 size=N/A time=00:14:23.73 bitrate=N/A speed=14.3x    frame=20891 fps=343 q=-0.0 size=N/A time=00:14:31.32 bitrate=N/A speed=14.3x    frame=21077 fps=343 q=-0.0 size=N/A time=00:14:39.08 bitrate=N/A speed=14.3x    frame=21265 fps=343 q=-0.0 size=N/A time=00:14:46.92 bitrate=N/A speed=14.3x    frame=21446 fps=344 q=-0.0 size=N/A time=00:14:54.47 bitrate=N/A speed=14.3x    frame=21630 fps=344 q=-0.0 size=N/A time=00:15:02.15 bitrate=N/A speed=14.3x    frame=21821 fps=344 q=-0.0 size=N/A time=00:15:10.11 bitrate=N/A speed=14.3x    frame=21998 fps=344 q=-0.0 size=N/A time=00:15:17.49 bitrate=N/A speed=14.3x    frame=22178 fps=344 q=-0.0 size=N/A time=00:15:25.00 bitrate=N/A speed=14.3x    frame=22355 fps=344 q=-0.0 size=N/A time=00:15:32.38 bitrate=N/A speed=14.3x    frame=22543 fps=344 q=-0.0 size=N/A time=00:15:40.23 bitrate=N/A speed=14.3x    frame=22719 fps=344 q=-0.0 size=N/A time=00:15:47.57 bitrate=N/A speed=14.3x    frame=22902 fps=344 q=-0.0 size=N/A time=00:15:55.20 bitrate=N/A speed=14.4x    frame=23086 fps=344 q=-0.0 size=N/A time=00:16:02.87 bitrate=N/A speed=14.4x    frame=23268 fps=344 q=-0.0 size=N/A time=00:16:10.46 bitrate=N/A speed=14.4x    frame=23453 fps=344 q=-0.0 size=N/A time=00:16:18.18 bitrate=N/A speed=14.4x    frame=23624 fps=344 q=-0.0 size=N/A time=00:16:25.31 bitrate=N/A speed=14.4x    frame=23808 fps=344 q=-0.0 size=N/A time=00:16:32.99 bitrate=N/A speed=14.4x    frame=23987 fps=344 q=-0.0 size=N/A time=00:16:40.45 bitrate=N/A speed=14.4x    frame=24167 fps=344 q=-0.0 size=N/A time=00:16:47.96 bitrate=N/A speed=14.4x    frame=24340 fps=344 q=-0.0 size=N/A time=00:16:55.18 bitrate=N/A speed=14.4x    frame=24529 fps=345 q=-0.0 size=N/A time=00:17:03.06 bitrate=N/A speed=14.4x    frame=24713 fps=345 q=-0.0 size=N/A time=00:17:10.73 bitrate=N/A speed=14.4x    frame=24888 fps=345 q=-0.0 size=N/A time=00:17:18.03 bitrate=N/A speed=14.4x    frame=25065 fps=345 q=-0.0 size=N/A time=00:17:25.41 bitrate=N/A speed=14.4x    frame=25232 fps=344 q=-0.0 size=N/A time=00:17:32.38 bitrate=N/A speed=14.4x    frame=25400 fps=344 q=-0.0 size=N/A time=00:17:39.39 bitrate=N/A speed=14.4x    frame=25586 fps=344 q=-0.0 size=N/A time=00:17:47.14 bitrate=N/A speed=14.4x    frame=25763 fps=344 q=-0.0 size=N/A time=00:17:54.53 bitrate=N/A speed=14.4x    frame=25939 fps=344 q=-0.0 size=N/A time=00:18:01.87 bitrate=N/A speed=14.4x    frame=26126 fps=345 q=-0.0 size=N/A time=00:18:09.67 bitrate=N/A speed=14.4x    frame=26312 fps=345 q=-0.0 size=N/A time=00:18:17.42 bitrate=N/A speed=14.4x    frame=26496 fps=345 q=-0.0 size=N/A time=00:18:25.10 bitrate=N/A speed=14.4x    frame=26680 fps=345 q=-0.0 size=N/A time=00:18:32.77 bitrate=N/A speed=14.4x    frame=26863 fps=345 q=-0.0 size=N/A time=00:18:40.41 bitrate=N/A speed=14.4x    frame=27040 fps=345 q=-0.0 size=N/A time=00:18:47.79 bitrate=N/A speed=14.4x    frame=27210 fps=345 q=-0.0 size=N/A time=00:18:54.88 bitrate=N/A speed=14.4x    frame=27386 fps=345 q=-0.0 size=N/A time=00:19:02.22 bitrate=N/A speed=14.4x    frame=27577 fps=345 q=-0.0 size=N/A time=00:19:10.19 bitrate=N/A speed=14.4x    frame=27757 fps=345 q=-0.0 size=N/A time=00:19:17.69 bitrate=N/A speed=14.4x    frame=27940 fps=345 q=-0.0 size=N/A time=00:19:25.33 bitrate=N/A speed=14.4x    frame=28123 fps=345 q=-0.0 size=N/A time=00:19:32.96 bitrate=N/A speed=14.4x    frame=28300 fps=345 q=-0.0 size=N/A time=00:19:40.34 bitrate=N/A speed=14.4x    frame=28482 fps=345 q=-0.0 size=N/A time=00:19:47.93 bitrate=N/A speed=14.4x    frame=28665 fps=345 q=-0.0 size=N/A time=00:19:55.56 bitrate=N/A speed=14.4x    frame=28842 fps=345 q=-0.0 size=N/A time=00:20:02.95 bitrate=N/A speed=14.4x    frame=29013 fps=345 q=-0.0 size=N/A time=00:20:10.08 bitrate=N/A speed=14.4x    frame=29173 fps=345 q=-0.0 size=N/A time=00:20:16.75 bitrate=N/A speed=14.4x    frame=29347 fps=345 q=-0.0 size=N/A time=00:20:24.01 bitrate=N/A speed=14.4x    frame=29522 fps=345 q=-0.0 size=N/A time=00:20:31.31 bitrate=N/A speed=14.4x    frame=29687 fps=344 q=-0.0 size=N/A time=00:20:38.19 bitrate=N/A speed=14.4x    frame=29859 fps=344 q=-0.0 size=N/A time=00:20:45.36 bitrate=N/A speed=14.4x    frame=30021 fps=344 q=-0.0 size=N/A time=00:20:52.12 bitrate=N/A speed=14.4x    frame=30199 fps=344 q=-0.0 size=N/A time=00:20:59.54 bitrate=N/A speed=14.4x    frame=30379 fps=344 q=-0.0 size=N/A time=00:21:07.05 bitrate=N/A speed=14.4x    frame=30559 fps=344 q=-0.0 size=N/A time=00:21:14.56 bitrate=N/A speed=14.4x    frame=30745 fps=344 q=-0.0 size=N/A time=00:21:22.32 bitrate=N/A speed=14.4x    frame=30940 fps=345 q=-0.0 size=N/A time=00:21:30.45 bitrate=N/A speed=14.4x    frame=31118 fps=345 q=-0.0 size=N/A time=00:21:37.87 bitrate=N/A speed=14.4x    frame=31300 fps=345 q=-0.0 size=N/A time=00:21:45.47 bitrate=N/A speed=14.4x    frame=31474 fps=345 q=-0.0 size=N/A time=00:21:52.72 bitrate=N/A speed=14.4x    frame=31666 fps=345 q=-0.0 size=N/A time=00:22:00.73 bitrate=N/A speed=14.4x    frame=31837 fps=345 q=-0.0 size=N/A time=00:22:07.86 bitrate=N/A speed=14.4x    frame=32010 fps=345 q=-0.0 size=N/A time=00:22:15.08 bitrate=N/A speed=14.4x    frame=32194 fps=345 q=-0.0 size=N/A time=00:22:22.75 bitrate=N/A speed=14.4x    frame=32381 fps=345 q=-0.0 size=N/A time=00:22:30.55 bitrate=N/A speed=14.4x    frame=32568 fps=345 q=-0.0 size=N/A time=00:22:38.35 bitrate=N/A speed=14.4x    frame=32723 fps=345 q=-0.0 size=N/A time=00:22:44.82 bitrate=N/A speed=14.4x    frame=32883 fps=344 q=-0.0 size=N/A time=00:22:51.49 bitrate=N/A speed=14.4x    frame=33070 fps=345 q=-0.0 size=N/A time=00:22:59.29 bitrate=N/A speed=14.4x    frame=33252 fps=345 q=-0.0 size=N/A time=00:23:06.88 bitrate=N/A speed=14.4x    frame=33421 fps=344 q=-0.0 size=N/A time=00:23:13.93 bitrate=N/A speed=14.4x    frame=33576 fps=344 q=-0.0 size=N/A time=00:23:20.39 bitrate=N/A speed=14.4x    frame=33731 fps=344 q=-0.0 size=N/A time=00:23:26.86 bitrate=N/A speed=14.3x    frame=33849 fps=343 q=-0.0 size=N/A time=00:23:31.78 bitrate=N/A speed=14.3x    frame=34002 fps=343 q=-0.0 size=N/A time=00:23:38.16 bitrate=N/A speed=14.3x    frame=34163 fps=343 q=-0.0 size=N/A time=00:23:44.88 bitrate=N/A speed=14.3x    frame=34315 fps=343 q=-0.0 size=N/A time=00:23:51.22 bitrate=N/A speed=14.3x    frame=34444 fps=342 q=-0.0 size=N/A time=00:23:56.60 bitrate=N/A speed=14.3x    frame=34613 fps=342 q=-0.0 size=N/A time=00:24:03.65 bitrate=N/A speed=14.3x    [Parsed_ssim_16 @ 000001fee1df7180] SSIM Y:0.994198 (22.364513) U:0.994008 (22.223926) V:0.993611 (21.945416) All:0.994069 (22.268438)
[out#0/null @ 000001fed480c140] video:14903KiB audio:271276KiB subtitle:0KiB other streams:0KiB global headers:0KiB muxing overhead: unknown
frame=34683 fps=342 q=-0.0 Lsize=N/A time=00:24:06.57 bitrate=N/A speed=14.3x    
